{"title":"Gone with the wind 1939 (720p)","uid":5191442,"size":8530874736,"categoryP":"video","categoryS":"hd___movies","magnet":"?xt=urn:btih:70801c2f4b60b4680e808d8a1144ecc2cc8c5fbc&amp;dn=Gone+with+the+wind+1939+%28720p%29&amp;tr=udp%3A%2F%2Ftracker.openbittorrent.com%3A80&amp;tr=udp%3A%2F%2Fopen.demonii.com%3A1337&amp;tr=udp%3A%2F%2Ftracker.coppersurfer.tk%3A6969&amp;tr=udp%3A%2F%2Fexodus.desync.com%3A6969","seeders":2,"leechers":0,"uploader":"mfccorrea","files":2,"time":1259721813,"description":"Gone With the Wind boils down to a story about a spoiled Southern girl's hopeless love for a married man. Producer David O. Selznick managed to expand this concept, and Margaret Mitchell's best-selling novel, into nearly four hours' worth of screen time, on a then-astronomical 3.7-million-dollar budget, creating what would become one of the most beloved movies of all time. Gone With the Wind opens in April of 1861, at the palatial Southern estate of Tara, where Scarlett O'Hara (Vivien Leigh) hears that her casual beau Ashley Wilkes (Leslie Howard) plans to marry &quot;mealy mouthed&quot; Melanie Hamilton (Olivia de Havilland). Despite warnings from her father (Thomas Mitchell) and her faithful servant Mammy (Hattie McDaniel), Scarlett intends to throw herself at Ashley at an upcoming barbecue at Twelve Oaks. Alone with Ashley, she goes into a fit of histrionics, all of which is witnessed by roguish Rhett Butler (Clark Gable), the black sheep of a wealthy Charleston family, who is instantly fascinated by the feisty, thoroughly self-centered Scarlett: &quot;We're bad lots, both of us.&quot; The movie's famous action continues from the burning of Atlanta (actually the destruction of a huge wall left over from King Kong) through the now-classic closing line, &quot;Frankly, my dear, I don't give a damn.&quot; Holding its own against stiff competition (many consider 1939 to be the greatest year of the classical Hollywood studios), Gone With the Wind won ten Academy Awards, including Best Picture, Best Director, Best Screenplay, Best Actress (Vivien Leigh), and Best Supporting Actress (Hattie McDaniel, the first African-American to win an Oscar). The film grossed nearly 192 million dollars, assuring that, just as he predicted, Selznick's epitaph would be &quot;The Man Who Made Gone With the Wind.&quot; \n\n   General\n      Complete name : Gone.With.The.Wind.1939.720p.BluRay.x264-SiNNERS.mkv\n      Format : Matroska\n      File size : 7.94 GiB\n      Duration : 3h 53mn\n      Overall bit rate : 4 876 Kbps\n      Encoded date : UTC 2009-11-04 09:53:34\n      Writing application : mkvmerge v2.9.7 ('Tenderness') built on Jul  1 2009 18:43:35\n      Writing library : libebml v0.7.7 + libmatroska v0.8.1\n   Video #1\n      ID : 1\n      Format : AVC\n      Format/Info : Advanced Video Codec\n      Format profile : &lt;a class=&quot;__cf_email__&quot; href=&quot;/cdn-cgi/l/email-protection&quot; data-cfemail=&quot;e7af8e808fa7abd4c9d6&quot;&gt;[email&amp;#160;protected]&lt;/a&gt;&lt;script cf-hash='f9e31' type=&quot;text/javascript&quot;&gt;\n/* &lt;![CDATA[ */!function(){try{var t=&quot;currentScript&quot;in document?document.currentScript:function(){for(var t=document.getElementsByTagName(&quot;script&quot;),e=t.length;e--;)if(t[e].getAttribute(&quot;cf-hash&quot;))return t[e]}();if(t&amp;&amp;t.previousSibling){var e,r,n,i,c=t.previousSibling,a=c.getAttribute(&quot;data-cfemail&quot;);if(a){for(e=&quot;&quot;,r=parseInt(a.substr(0,2),16),n=2;a.length-n;n+=2)i=parseInt(a.substr(n,2),16)^r,e+=String.fromCharCode(i);e=document.createTextNode(e),c.parentNode.replaceChild(e,c)}}}catch(u){}}();/* ]]&gt; */&lt;/script&gt;\n      Format settings, CABAC : Yes\n      Format settings, ReFrames : 5 frames\n      Muxing mode : Container profile=&lt;a class=&quot;__cf_email__&quot; href=&quot;/cdn-cgi/l/email-protection&quot; data-cfemail=&quot;e6b3888d88899188a6d5c8d7&quot;&gt;[email&amp;#160;protected]&lt;/a&gt;&lt;script cf-hash='f9e31' type=&quot;text/javascript&quot;&gt;\n/* &lt;![CDATA[ */!function(){try{var t=&quot;currentScript&quot;in document?document.currentScript:function(){for(var t=document.getElementsByTagName(&quot;script&quot;),e=t.length;e--;)if(t[e].getAttribute(&quot;cf-hash&quot;))return t[e]}();if(t&amp;&amp;t.previousSibling){var e,r,n,i,c=t.previousSibling,a=c.getAttribute(&quot;data-cfemail&quot;);if(a){for(e=&quot;&quot;,r=parseInt(a.substr(0,2),16),n=2;a.length-n;n+=2)i=parseInt(a.substr(n,2),16)^r,e+=String.fromCharCode(i);e=document.createTextNode(e),c.parentNode.replaceChild(e,c)}}}catch(u){}}();/* ]]&gt; */&lt;/script&gt;\n      Codec ID : V_MPEG4/ISO/AVC\n      Duration : 3h 53mn\n      Bit rate : 4 139 Kbps\n      Nominal bit rate : 4 235 Kbps\n      Width : 992 pixels\n      Height : 720 pixels\n      Display aspect ratio : 1.378\n      Frame rate : 23.976 fps\n      Resolution : 24 bits\n      Colorimetry : 4:2:0\n      Scan type : Progressive\n      Bits/(Pixel*Frame) : 0.242\n      Stream size : 6.74 GiB (85%)\n      Writing library : x264 core 78 r1318 fe83a90\n      Language : English\n   Audio #2\n      ID : 2\n      Format : AC-3\n      Format/Info : Audio Coding 3\n      Codec ID : A_AC3\n      Duration : 3h 53mn\n      Bit rate mode : Constant\n      Bit rate : 640 Kbps\n      Channel(s) : 6 channels\n      Channel positions : Front: L C R, Surround: L R, LFE\n      Sampling rate : 48.0 KHz\n      Stream size : 1.04 GiB (13%)\n      Language : English\n   Text #3\n      ID : 3\n      Format : UTF-8\n      Codec ID : S_TEXT/UTF8\n      Codec ID/Info : UTF-8 Plain Text\n      Language : English\n\nIMDB: tt0031381\n\nEnglish audio; English subtitles in the mkv container, external Portuguese subtitles (srt)","torrent":{"xt":"urn:btih:70801c2f4b60b4680e808d8a1144ecc2cc8c5fbc","amp;dn":"Gone+with+the+wind+1939+%28720p%29","amp;tr":["udp%3A%2F%2Ftracker.openbittorrent.com%3A80","udp%3A%2F%2Fopen.demonii.com%3A1337","udp%3A%2F%2Ftracker.coppersurfer.tk%3A6969","udp%3A%2F%2Fexodus.desync.com%3A6969"],"infoHash":"70801c2f4b60b4680e808d8a1144ecc2cc8c5fbc","infoHashBuffer":{"type":"Buffer","data":[112,128,28,47,75,96,180,104,14,128,141,138,17,68,236,194,204,140,95,188]},"announce":[],"urlList":[]}}